<?xml version="1.0" encoding="utf-8"?>
<!-- Generator: Adobe Illustrator 22.0.1, SVG Export Plug-In . SVG Version: 6.00 Build 0)  -->
<svg version="1.1" id="Layer_1" xmlns="http://www.w3.org/2000/svg" xmlns:xlink="http://www.w3.org/1999/xlink" x="0px" y="0px"
	 viewBox="0 0 110 20" style="enable-background:new 0 0 110 20;" xml:space="preserve">
<style type="text/css">
	.st0{clip-path:url(#SVGID_2_);}
	.st1{fill:#555555;}
	.st2{fill:#FE7D37;}
	.st3{fill:url(#SVGID_3_);}
	.st4{enable-background:new    ;}
	.st5{fill:none;}
	.st6{fill:#010101;}
	.st7{font-family:'Verdana';}
	.st8{font-size:11px;}
	.st9{fill:#FFFFFF;}
</style>
<g>
	<defs>
		<path id="SVGID_1_" d="M3,0h104c1.7,0,3,1.3,3,3v14c0,1.7-1.3,3-3,3H3c-1.7,0-3-1.3-3-3V3C0,1.3,1.3,0,3,0z"/>
	</defs>
	<clipPath id="SVGID_2_">
		<use xlink:href="#SVGID_1_"  style="overflow:visible;"/>
	</clipPath>
	<g class="st0">
		<path class="st1" d="M0,0h35v20H0V0z"/>
		<path class="st2" d="M35,0h75v20H35V0z"/>
		
			<linearGradient id="SVGID_3_" gradientUnits="userSpaceOnUse" x1="-336.4091" y1="302.25" x2="-336.4091" y2="301.25" gradientTransform="matrix(110 0 0 -20 37060 6045)">
			<stop  offset="0" style="stop-color:#BBBBBB;stop-opacity:0.1"/>
			<stop  offset="1" style="stop-color:#000000;stop-opacity:0.1"/>
		</linearGradient>
		<path class="st3" d="M0,0h110v20H0V0z"/>
	</g>
</g>
<g>
	<g class="st4">
		<rect x="6.2" y="5.5" class="st5" width="25" height="12.8"/>
		<text transform="matrix(1 0 0 1 6.2432 15)"><tspan x="0" y="0" class="st6 st7 st8">np</tspan><tspan x="14.3" y="0" class="st6 st7 st8">m</tspan></text>
	</g>
	<rect x="6.2" y="4.5" class="st5" width="25" height="12.8"/>
	<text transform="matrix(1 0 0 1 6.2432 14)" class="st4"><tspan x="0" y="0" class="st9 st7 st8">np</tspan><tspan x="14.3" y="0" class="st9 st7 st8">m</tspan></text>
	<g class="st4">
		<rect x="39.1" y="5.5" class="st5" width="65" height="12.8"/>
		<text transform="matrix(1 0 0 1 39.0825 15)" class="st6 st7 st8">v1.0.0-beta</text>
	</g>
	<rect x="39.1" y="4.5" class="st5" width="65" height="12.8"/>
	<text transform="matrix(1 0 0 1 39.0825 14)" class="st9 st7 st8">v1.0.0-beta</text>
</g>
</svg>
